G04 ---------------------------- Layer name :BOTTOM SILK LAYER*
G04 EasyEDA v5.6.10, Fri, 20 Jul 2018 15:00:38 GMT*
G04 107905ebd11d4209b34b6b689eea119d*
G04 Gerber Generator version 0.2*
G04 Scale: 100 percent, Rotated: No, Reflected: No *
G04 Dimensions in millimeters *
G04 leading zeros omitted , absolute positions ,3 integer and 3 decimal *
%FSLAX33Y33*%
%MOMM*%
G90*
G71D02*

%ADD23C,0.203200*%

%LPD*%
G54D23*
G01X6694Y54064D02*
G01X6830Y53996D01*
G01X6967Y53860D01*
G01X7035Y53724D01*
G01X7103Y53519D01*
G01X7103Y53178D01*
G01X7035Y52974D01*
G01X6967Y52837D01*
G01X6830Y52701D01*
G01X6694Y52633D01*
G01X6421Y52633D01*
G01X6285Y52701D01*
G01X6149Y52837D01*
G01X6080Y52974D01*
G01X6012Y53178D01*
G01X6012Y53519D01*
G01X6080Y53724D01*
G01X6149Y53860D01*
G01X6285Y53996D01*
G01X6421Y54064D01*
G01X6694Y54064D01*
G01X5562Y54064D02*
G01X5562Y52633D01*
G01X5562Y54064D02*
G01X4608Y52633D01*
G01X4608Y54064D02*
G01X4608Y52633D01*
G01X7456Y59398D02*
G01X7592Y59330D01*
G01X7729Y59194D01*
G01X7797Y59058D01*
G01X7865Y58853D01*
G01X7865Y58512D01*
G01X7797Y58308D01*
G01X7729Y58171D01*
G01X7592Y58035D01*
G01X7456Y57967D01*
G01X7183Y57967D01*
G01X7047Y58035D01*
G01X6911Y58171D01*
G01X6842Y58308D01*
G01X6774Y58512D01*
G01X6774Y58853D01*
G01X6842Y59058D01*
G01X6911Y59194D01*
G01X7047Y59330D01*
G01X7183Y59398D01*
G01X7456Y59398D01*
G01X6324Y59398D02*
G01X6324Y57967D01*
G01X6324Y59398D02*
G01X5438Y59398D01*
G01X6324Y58717D02*
G01X5779Y58717D01*
G01X4988Y59398D02*
G01X4988Y57967D01*
G01X4988Y59398D02*
G01X4101Y59398D01*
G01X4988Y58717D02*
G01X4442Y58717D01*
G01X10151Y65277D02*
G01X10151Y63337D01*
G01X10151Y65277D02*
G01X8950Y65277D01*
G01X10151Y64353D02*
G01X9412Y64353D01*
G01X8341Y65277D02*
G01X8341Y63337D01*
G01X8341Y65277D02*
G01X7509Y65277D01*
G01X7232Y65184D01*
G01X7140Y65092D01*
G01X7048Y64907D01*
G01X7048Y64722D01*
G01X7140Y64538D01*
G01X7232Y64445D01*
G01X7509Y64353D01*
G01X8341Y64353D02*
G01X7509Y64353D01*
G01X7232Y64261D01*
G01X7140Y64168D01*
G01X7048Y63984D01*
G01X7048Y63706D01*
G01X7140Y63522D01*
G01X7232Y63429D01*
G01X7509Y63337D01*
G01X8341Y63337D01*
G01X6438Y65277D02*
G01X6438Y63337D01*
G01X5145Y65277D02*
G01X6438Y63984D01*
G01X5976Y64445D02*
G01X5145Y63337D01*
G01X14423Y57022D02*
G01X14608Y56929D01*
G01X14792Y56745D01*
G01X14885Y56560D01*
G01X14977Y56283D01*
G01X14977Y55821D01*
G01X14885Y55544D01*
G01X14792Y55359D01*
G01X14608Y55174D01*
G01X14423Y55082D01*
G01X14053Y55082D01*
G01X13869Y55174D01*
G01X13684Y55359D01*
G01X13592Y55544D01*
G01X13499Y55821D01*
G01X13499Y56283D01*
G01X13592Y56560D01*
G01X13684Y56745D01*
G01X13869Y56929D01*
G01X14053Y57022D01*
G01X14423Y57022D01*
G01X11597Y56745D02*
G01X11781Y56929D01*
G01X12058Y57022D01*
G01X12428Y57022D01*
G01X12705Y56929D01*
G01X12890Y56745D01*
G01X12890Y56560D01*
G01X12797Y56375D01*
G01X12705Y56283D01*
G01X12520Y56190D01*
G01X11966Y56006D01*
G01X11781Y55913D01*
G01X11689Y55821D01*
G01X11597Y55636D01*
G01X11597Y55359D01*
G01X11781Y55174D01*
G01X12058Y55082D01*
G01X12428Y55082D01*
G01X12705Y55174D01*
G01X12890Y55359D01*
G01X9601Y56560D02*
G01X9694Y56745D01*
G01X9879Y56929D01*
G01X10063Y57022D01*
G01X10433Y57022D01*
G01X10617Y56929D01*
G01X10802Y56745D01*
G01X10895Y56560D01*
G01X10987Y56283D01*
G01X10987Y55821D01*
G01X10895Y55544D01*
G01X10802Y55359D01*
G01X10617Y55174D01*
G01X10433Y55082D01*
G01X10063Y55082D01*
G01X9879Y55174D01*
G01X9694Y55359D01*
G01X9601Y55544D01*
G01X8807Y57022D02*
G01X7791Y57022D01*
G01X8345Y56283D01*
G01X8068Y56283D01*
G01X7884Y56190D01*
G01X7791Y56098D01*
G01X7699Y55821D01*
G01X7699Y55636D01*
G01X7791Y55359D01*
G01X7976Y55174D01*
G01X8253Y55082D01*
G01X8530Y55082D01*
G01X8807Y55174D01*
G01X8900Y55267D01*
G01X8992Y55451D01*
G01X5198Y100210D02*
G01X5062Y100278D01*
G01X4857Y100483D01*
G01X4857Y99051D01*
G01X5257Y97348D02*
G01X5257Y97416D01*
G01X5189Y97553D01*
G01X5120Y97621D01*
G01X4984Y97689D01*
G01X4711Y97689D01*
G01X4575Y97621D01*
G01X4507Y97553D01*
G01X4439Y97416D01*
G01X4439Y97280D01*
G01X4507Y97144D01*
G01X4643Y96939D01*
G01X5325Y96257D01*
G01X4371Y96257D01*
G01X5316Y95022D02*
G01X4566Y95022D01*
G01X4975Y94477D01*
G01X4770Y94477D01*
G01X4634Y94408D01*
G01X4566Y94340D01*
G01X4498Y94136D01*
G01X4498Y93999D01*
G01X4566Y93795D01*
G01X4702Y93658D01*
G01X4907Y93590D01*
G01X5111Y93590D01*
G01X5316Y93658D01*
G01X5384Y93727D01*
G01X5452Y93863D01*
G01X5325Y89161D02*
G01X5189Y89229D01*
G01X4984Y89434D01*
G01X4984Y88002D01*
G01X5384Y86426D02*
G01X5384Y86494D01*
G01X5316Y86631D01*
G01X5247Y86699D01*
G01X5111Y86767D01*
G01X4838Y86767D01*
G01X4702Y86699D01*
G01X4634Y86631D01*
G01X4566Y86494D01*
G01X4566Y86358D01*
G01X4634Y86222D01*
G01X4770Y86017D01*
G01X5452Y85335D01*
G01X4498Y85335D01*
G01X5443Y83846D02*
G01X4693Y83846D01*
G01X5102Y83301D01*
G01X4897Y83301D01*
G01X4761Y83232D01*
G01X4693Y83164D01*
G01X4625Y82960D01*
G01X4625Y82823D01*
G01X4693Y82619D01*
G01X4829Y82482D01*
G01X5034Y82414D01*
G01X5238Y82414D01*
G01X5443Y82482D01*
G01X5511Y82551D01*
G01X5579Y82687D01*
G01X5579Y78239D02*
G01X5443Y78307D01*
G01X5238Y78512D01*
G01X5238Y77080D01*
G01X5638Y75631D02*
G01X5638Y75699D01*
G01X5570Y75836D01*
G01X5501Y75904D01*
G01X5365Y75972D01*
G01X5092Y75972D01*
G01X4956Y75904D01*
G01X4888Y75836D01*
G01X4820Y75699D01*
G01X4820Y75563D01*
G01X4888Y75427D01*
G01X5024Y75222D01*
G01X5706Y74540D01*
G01X4752Y74540D01*
G01X5697Y73051D02*
G01X4947Y73051D01*
G01X5356Y72506D01*
G01X5151Y72506D01*
G01X5015Y72437D01*
G01X4947Y72369D01*
G01X4879Y72165D01*
G01X4879Y72028D01*
G01X4947Y71824D01*
G01X5083Y71687D01*
G01X5288Y71619D01*
G01X5492Y71619D01*
G01X5697Y71687D01*
G01X5765Y71756D01*
G01X5833Y71892D01*
G01X9008Y98678D02*
G01X9008Y96738D01*
G01X9008Y98678D02*
G01X7807Y98678D01*
G01X9008Y97754D02*
G01X8269Y97754D01*
G01X7198Y98308D02*
G01X7013Y98401D01*
G01X6736Y98678D01*
G01X6736Y96738D01*
G01X9897Y85597D02*
G01X9897Y83657D01*
G01X9897Y85597D02*
G01X8696Y85597D01*
G01X9897Y84673D02*
G01X9158Y84673D01*
G01X7994Y85135D02*
G01X7994Y85227D01*
G01X7902Y85412D01*
G01X7810Y85504D01*
G01X7625Y85597D01*
G01X7255Y85597D01*
G01X7071Y85504D01*
G01X6978Y85412D01*
G01X6886Y85227D01*
G01X6886Y85042D01*
G01X6978Y84858D01*
G01X7163Y84581D01*
G01X8087Y83657D01*
G01X6794Y83657D01*
G01X10151Y76199D02*
G01X10151Y74259D01*
G01X10151Y76199D02*
G01X8950Y76199D01*
G01X10151Y75275D02*
G01X9412Y75275D01*
G01X8156Y76199D02*
G01X7140Y76199D01*
G01X7694Y75460D01*
G01X7417Y75460D01*
G01X7232Y75367D01*
G01X7140Y75275D01*
G01X7048Y74998D01*
G01X7048Y74813D01*
G01X7140Y74536D01*
G01X7325Y74351D01*
G01X7602Y74259D01*
G01X7879Y74259D01*
G01X8156Y74351D01*
G01X8248Y74444D01*
G01X8341Y74628D01*
G01X4817Y49728D02*
G01X4681Y49796D01*
G01X4476Y50000D01*
G01X4476Y48569D01*
G01X5257Y46866D02*
G01X5257Y46934D01*
G01X5189Y47070D01*
G01X5120Y47138D01*
G01X4984Y47206D01*
G01X4711Y47206D01*
G01X4575Y47138D01*
G01X4507Y47070D01*
G01X4439Y46934D01*
G01X4439Y46797D01*
G01X4507Y46661D01*
G01X4643Y46456D01*
G01X5325Y45775D01*
G01X4371Y45775D01*
G01X5316Y44158D02*
G01X4566Y44158D01*
G01X4975Y43613D01*
G01X4770Y43613D01*
G01X4634Y43545D01*
G01X4566Y43477D01*
G01X4498Y43272D01*
G01X4498Y43136D01*
G01X4566Y42931D01*
G01X4702Y42795D01*
G01X4907Y42727D01*
G01X5111Y42727D01*
G01X5316Y42795D01*
G01X5384Y42863D01*
G01X5452Y42999D01*
G01X6539Y41522D02*
G01X6539Y40431D01*
G01X6607Y40227D01*
G01X6675Y40159D01*
G01X6812Y40090D01*
G01X7016Y40090D01*
G01X7152Y40159D01*
G01X6539Y41318D02*
G01X6675Y41454D01*
G01X6812Y41522D01*
G01X7016Y41522D01*
G01X7152Y41454D01*
G01X7289Y41318D01*
G01X7357Y41113D01*
G01X7357Y40977D01*
G01X7289Y40772D01*
G01X7152Y40636D01*
G01X7016Y40568D01*
G01X6812Y40568D01*
G01X6675Y40636D01*
G01X6539Y40772D01*
G01X6089Y41522D02*
G01X6089Y40568D01*
G01X6089Y41249D02*
G01X5884Y41454D01*
G01X5748Y41522D01*
G01X5543Y41522D01*
G01X5407Y41454D01*
G01X5339Y41249D01*
G01X5339Y40568D01*
G01X4071Y41999D02*
G01X4071Y40568D01*
G01X4071Y41318D02*
G01X4207Y41454D01*
G01X4343Y41522D01*
G01X4548Y41522D01*
G01X4684Y41454D01*
G01X4821Y41318D01*
G01X4889Y41113D01*
G01X4889Y40977D01*
G01X4821Y40772D01*
G01X4684Y40636D01*
G01X4548Y40568D01*
G01X4343Y40568D01*
G01X4207Y40636D01*
G01X4071Y40772D01*
G01X4817Y26886D02*
G01X4817Y25455D01*
G01X5833Y24219D02*
G01X5833Y22788D01*
G01X5383Y24219D02*
G01X4838Y22788D01*
G01X4292Y24219D02*
G01X4838Y22788D01*
G01X7230Y21425D02*
G01X6685Y19994D01*
G01X6139Y21425D02*
G01X6685Y19994D01*
G01X5689Y21425D02*
G01X5689Y19994D01*
G01X5239Y21425D02*
G01X5239Y19994D01*
G01X4789Y21425D02*
G01X4789Y19994D01*
G01X6087Y19012D02*
G01X5133Y17581D01*
G01X5133Y19012D02*
G01X6087Y17581D01*
G01X4682Y19012D02*
G01X4682Y17581D01*
G01X7047Y16249D02*
G01X7047Y15158D01*
G01X7115Y14954D01*
G01X7183Y14886D01*
G01X7320Y14817D01*
G01X7524Y14817D01*
G01X7660Y14886D01*
G01X7047Y16045D02*
G01X7183Y16181D01*
G01X7320Y16249D01*
G01X7524Y16249D01*
G01X7660Y16181D01*
G01X7797Y16045D01*
G01X7865Y15840D01*
G01X7865Y15704D01*
G01X7797Y15499D01*
G01X7660Y15363D01*
G01X7524Y15295D01*
G01X7320Y15295D01*
G01X7183Y15363D01*
G01X7047Y15499D01*
G01X6597Y16249D02*
G01X6597Y15295D01*
G01X6597Y15976D02*
G01X6392Y16181D01*
G01X6256Y16249D01*
G01X6051Y16249D01*
G01X5915Y16181D01*
G01X5847Y15976D01*
G01X5847Y15295D01*
G01X4579Y16726D02*
G01X4579Y15295D01*
G01X4579Y16045D02*
G01X4715Y16181D01*
G01X4851Y16249D01*
G01X5056Y16249D01*
G01X5192Y16181D01*
G01X5329Y16045D01*
G01X5397Y15840D01*
G01X5397Y15704D01*
G01X5329Y15499D01*
G01X5192Y15363D01*
G01X5056Y15295D01*
G01X4851Y15295D01*
G01X4715Y15363D01*
G01X4579Y15499D01*
G01X62038Y26409D02*
G01X62038Y25318D01*
G01X62106Y25114D01*
G01X62174Y25046D01*
G01X62311Y24977D01*
G01X62515Y24977D01*
G01X62651Y25046D01*
G01X62038Y26205D02*
G01X62174Y26341D01*
G01X62311Y26409D01*
G01X62515Y26409D01*
G01X62651Y26341D01*
G01X62788Y26205D01*
G01X62856Y26000D01*
G01X62856Y25864D01*
G01X62788Y25659D01*
G01X62651Y25523D01*
G01X62515Y25455D01*
G01X62311Y25455D01*
G01X62174Y25523D01*
G01X62038Y25659D01*
G01X61588Y26409D02*
G01X61588Y25455D01*
G01X61588Y26136D02*
G01X61383Y26341D01*
G01X61247Y26409D01*
G01X61042Y26409D01*
G01X60906Y26341D01*
G01X60838Y26136D01*
G01X60838Y25455D01*
G01X59570Y26886D02*
G01X59570Y25455D01*
G01X59570Y26205D02*
G01X59706Y26341D01*
G01X59842Y26409D01*
G01X60047Y26409D01*
G01X60183Y26341D01*
G01X60320Y26205D01*
G01X60388Y26000D01*
G01X60388Y25864D01*
G01X60320Y25659D01*
G01X60183Y25523D01*
G01X60047Y25455D01*
G01X59842Y25455D01*
G01X59706Y25523D01*
G01X59570Y25659D01*
G01X61784Y23742D02*
G01X61784Y22788D01*
G01X61784Y23538D02*
G01X61920Y23674D01*
G01X62057Y23742D01*
G01X62261Y23742D01*
G01X62397Y23674D01*
G01X62534Y23538D01*
G01X62602Y23333D01*
G01X62602Y23197D01*
G01X62534Y22992D01*
G01X62397Y22856D01*
G01X62261Y22788D01*
G01X62057Y22788D01*
G01X61920Y22856D01*
G01X61784Y22992D01*
G01X61334Y24219D02*
G01X61334Y22788D01*
G01X60884Y24219D02*
G01X60884Y22788D01*
G01X62339Y21552D02*
G01X61589Y21552D01*
G01X61998Y21007D01*
G01X61793Y21007D01*
G01X61657Y20939D01*
G01X61589Y20871D01*
G01X61521Y20666D01*
G01X61521Y20530D01*
G01X61589Y20325D01*
G01X61725Y20189D01*
G01X61930Y20121D01*
G01X62134Y20121D01*
G01X62339Y20189D01*
G01X62407Y20257D01*
G01X62475Y20393D01*
G01X62280Y18672D02*
G01X62280Y18740D01*
G01X62212Y18876D01*
G01X62143Y18944D01*
G01X62007Y19012D01*
G01X61734Y19012D01*
G01X61598Y18944D01*
G01X61530Y18876D01*
G01X61462Y18740D01*
G01X61462Y18603D01*
G01X61530Y18467D01*
G01X61666Y18262D01*
G01X62348Y17581D01*
G01X61394Y17581D01*
G01X62221Y16073D02*
G01X62085Y16141D01*
G01X61880Y16345D01*
G01X61880Y14914D01*
G01X13326Y48513D02*
G01X12587Y46573D01*
G01X11848Y48513D02*
G01X12587Y46573D01*
G01X9853Y48051D02*
G01X9946Y48236D01*
G01X10130Y48420D01*
G01X10315Y48513D01*
G01X10684Y48513D01*
G01X10869Y48420D01*
G01X11054Y48236D01*
G01X11146Y48051D01*
G01X11239Y47774D01*
G01X11239Y47312D01*
G01X11146Y47035D01*
G01X11054Y46850D01*
G01X10869Y46665D01*
G01X10684Y46573D01*
G01X10315Y46573D01*
G01X10130Y46665D01*
G01X9946Y46850D01*
G01X9853Y47035D01*
G01X8689Y48513D02*
G01X8874Y48420D01*
G01X9059Y48236D01*
G01X9151Y48051D01*
G01X9244Y47774D01*
G01X9244Y47312D01*
G01X9151Y47035D01*
G01X9059Y46850D01*
G01X8874Y46665D01*
G01X8689Y46573D01*
G01X8320Y46573D01*
G01X8135Y46665D01*
G01X7950Y46850D01*
G01X7858Y47035D01*
G01X7766Y47312D01*
G01X7766Y47774D01*
G01X7858Y48051D01*
G01X7950Y48236D01*
G01X8135Y48420D01*
G01X8320Y48513D01*
G01X8689Y48513D01*
G01X14850Y23748D02*
G01X14850Y21808D01*
G01X14850Y23748D02*
G01X14111Y21808D01*
G01X13372Y23748D02*
G01X14111Y21808D01*
G01X13372Y23748D02*
G01X13372Y21808D01*
G01X12024Y23748D02*
G01X12763Y21808D01*
G01X12024Y23748D02*
G01X11285Y21808D01*
G01X12486Y22455D02*
G01X11562Y22455D01*
G01X10675Y23748D02*
G01X10675Y21808D01*
G01X10066Y23748D02*
G01X10066Y21808D01*
G01X10066Y23748D02*
G01X8773Y21808D01*
G01X8773Y23748D02*
G01X8773Y21808D01*
G01X58550Y22270D02*
G01X58642Y22455D01*
G01X58827Y22639D01*
G01X59011Y22732D01*
G01X59381Y22732D01*
G01X59566Y22639D01*
G01X59750Y22455D01*
G01X59843Y22270D01*
G01X59935Y21993D01*
G01X59935Y21531D01*
G01X59843Y21254D01*
G01X59750Y21069D01*
G01X59566Y20884D01*
G01X59381Y20792D01*
G01X59011Y20792D01*
G01X58827Y20884D01*
G01X58642Y21069D01*
G01X58550Y21254D01*
G01X57940Y22732D02*
G01X57201Y20792D01*
G01X56462Y22732D02*
G01X57201Y20792D01*
G01X54430Y22732D02*
G01X54338Y22639D01*
G01X54245Y22732D01*
G01X54338Y22824D01*
G01X54430Y22732D01*
G01X54338Y22085D02*
G01X54338Y20792D01*
G01X53636Y22085D02*
G01X53636Y20792D01*
G01X53636Y21716D02*
G01X53359Y21993D01*
G01X53174Y22085D01*
G01X52897Y22085D01*
G01X52712Y21993D01*
G01X52620Y21716D01*
G01X52620Y20792D01*
G01X12991Y45199D02*
G01X13176Y45107D01*
G01X13361Y44922D01*
G01X13453Y44645D01*
G01X13453Y44460D01*
G01X13361Y44183D01*
G01X13176Y43998D01*
G01X12991Y43906D01*
G01X12714Y43906D01*
G01X12529Y43998D01*
G01X12345Y44183D01*
G01X12252Y44460D01*
G01X12252Y44645D01*
G01X12345Y44922D01*
G01X12529Y45107D01*
G01X12714Y45199D01*
G01X12991Y45199D01*
G01X11643Y45199D02*
G01X11643Y44275D01*
G01X11550Y43998D01*
G01X11366Y43906D01*
G01X11089Y43906D01*
G01X10904Y43998D01*
G01X10627Y44275D01*
G01X10627Y45199D02*
G01X10627Y43906D01*
G01X9740Y45846D02*
G01X9740Y44275D01*
G01X9648Y43998D01*
G01X9463Y43906D01*
G01X9278Y43906D01*
G01X10017Y45199D02*
G01X9371Y45199D01*
G01X7653Y44922D02*
G01X7745Y45107D01*
G01X8022Y45199D01*
G01X8299Y45199D01*
G01X8576Y45107D01*
G01X8669Y44922D01*
G01X8576Y44737D01*
G01X8392Y44645D01*
G01X7930Y44553D01*
G01X7745Y44460D01*
G01X7653Y44275D01*
G01X7653Y44183D01*
G01X7745Y43998D01*
G01X8022Y43906D01*
G01X8299Y43906D01*
G01X8576Y43998D01*
G01X8669Y44183D01*
G01X13753Y20434D02*
G01X13938Y20342D01*
G01X14123Y20157D01*
G01X14215Y19880D01*
G01X14215Y19695D01*
G01X14123Y19418D01*
G01X13938Y19233D01*
G01X13753Y19141D01*
G01X13476Y19141D01*
G01X13291Y19233D01*
G01X13107Y19418D01*
G01X13014Y19695D01*
G01X13014Y19880D01*
G01X13107Y20157D01*
G01X13291Y20342D01*
G01X13476Y20434D01*
G01X13753Y20434D01*
G01X12405Y20434D02*
G01X12405Y19510D01*
G01X12312Y19233D01*
G01X12128Y19141D01*
G01X11851Y19141D01*
G01X11666Y19233D01*
G01X11389Y19510D01*
G01X11389Y20434D02*
G01X11389Y19141D01*
G01X10502Y21081D02*
G01X10502Y19510D01*
G01X10410Y19233D01*
G01X10225Y19141D01*
G01X10040Y19141D01*
G01X10779Y20434D02*
G01X10133Y20434D01*
G01X8415Y20157D02*
G01X8507Y20342D01*
G01X8784Y20434D01*
G01X9061Y20434D01*
G01X9338Y20342D01*
G01X9431Y20157D01*
G01X9338Y19972D01*
G01X9154Y19880D01*
G01X8692Y19788D01*
G01X8507Y19695D01*
G01X8415Y19510D01*
G01X8415Y19418D01*
G01X8507Y19233D01*
G01X8784Y19141D01*
G01X9061Y19141D01*
G01X9338Y19233D01*
G01X9431Y19418D01*
G01X59554Y106097D02*
G01X59554Y105552D01*
G01X59500Y105388D01*
G01X59390Y105333D01*
G01X59227Y105333D01*
G01X59118Y105388D01*
G01X58954Y105552D01*
G01X58954Y106097D02*
G01X58954Y105333D01*
G01X58594Y106097D02*
G01X58594Y105333D01*
G01X58594Y105879D02*
G01X58430Y106042D01*
G01X58321Y106097D01*
G01X58158Y106097D01*
G01X58049Y106042D01*
G01X57994Y105879D01*
G01X57994Y105333D01*
G01X57361Y106097D02*
G01X57470Y106042D01*
G01X57579Y105933D01*
G01X57634Y105770D01*
G01X57634Y105661D01*
G01X57579Y105497D01*
G01X57470Y105388D01*
G01X57361Y105333D01*
G01X57198Y105333D01*
G01X57089Y105388D01*
G01X56979Y105497D01*
G01X56925Y105661D01*
G01X56925Y105770D01*
G01X56979Y105933D01*
G01X57089Y106042D01*
G01X57198Y106097D01*
G01X57361Y106097D01*
G01X56129Y106479D02*
G01X56238Y106479D01*
G01X56347Y106424D01*
G01X56401Y106261D01*
G01X56401Y105333D01*
G01X56565Y106097D02*
G01X56183Y106097D01*
G01X55332Y106479D02*
G01X55441Y106479D01*
G01X55550Y106424D01*
G01X55605Y106261D01*
G01X55605Y105333D01*
G01X55769Y106097D02*
G01X55387Y106097D01*
G01X54972Y106479D02*
G01X54918Y106424D01*
G01X54863Y106479D01*
G01X54918Y106533D01*
G01X54972Y106479D01*
G01X54918Y106097D02*
G01X54918Y105333D01*
G01X53849Y105933D02*
G01X53958Y106042D01*
G01X54067Y106097D01*
G01X54230Y106097D01*
G01X54339Y106042D01*
G01X54449Y105933D01*
G01X54503Y105770D01*
G01X54503Y105661D01*
G01X54449Y105497D01*
G01X54339Y105388D01*
G01X54230Y105333D01*
G01X54067Y105333D01*
G01X53958Y105388D01*
G01X53849Y105497D01*
G01X53489Y106479D02*
G01X53434Y106424D01*
G01X53380Y106479D01*
G01X53434Y106533D01*
G01X53489Y106479D01*
G01X53434Y106097D02*
G01X53434Y105333D01*
G01X52365Y106097D02*
G01X52365Y105333D01*
G01X52365Y105933D02*
G01X52474Y106042D01*
G01X52583Y106097D01*
G01X52747Y106097D01*
G01X52856Y106042D01*
G01X52965Y105933D01*
G01X53020Y105770D01*
G01X53020Y105661D01*
G01X52965Y105497D01*
G01X52856Y105388D01*
G01X52747Y105333D01*
G01X52583Y105333D01*
G01X52474Y105388D01*
G01X52365Y105497D01*
G01X52005Y106479D02*
G01X52005Y105333D01*
G01X50805Y105770D02*
G01X50150Y105770D01*
G01X50150Y105879D01*
G01X50205Y105988D01*
G01X50260Y106042D01*
G01X50369Y106097D01*
G01X50532Y106097D01*
G01X50641Y106042D01*
G01X50750Y105933D01*
G01X50805Y105770D01*
G01X50805Y105661D01*
G01X50750Y105497D01*
G01X50641Y105388D01*
G01X50532Y105333D01*
G01X50369Y105333D01*
G01X50260Y105388D01*
G01X50150Y105497D01*
G01X49790Y106097D02*
G01X49790Y105552D01*
G01X49736Y105388D01*
G01X49627Y105333D01*
G01X49463Y105333D01*
G01X49354Y105388D01*
G01X49190Y105552D01*
G01X49190Y106097D02*
G01X49190Y105333D01*
G01X48830Y106097D02*
G01X48830Y105333D01*
G01X48830Y105770D02*
G01X48776Y105933D01*
G01X48667Y106042D01*
G01X48558Y106097D01*
G01X48394Y106097D01*
G01X47761Y106097D02*
G01X47870Y106042D01*
G01X47980Y105933D01*
G01X48034Y105770D01*
G01X48034Y105661D01*
G01X47980Y105497D01*
G01X47870Y105388D01*
G01X47761Y105333D01*
G01X47598Y105333D01*
G01X47489Y105388D01*
G01X47380Y105497D01*
G01X47325Y105661D01*
G01X47325Y105770D01*
G01X47380Y105933D01*
G01X47489Y106042D01*
G01X47598Y106097D01*
G01X47761Y106097D01*
G01X46965Y106097D02*
G01X46965Y105333D01*
G01X46965Y105770D02*
G01X46910Y105933D01*
G01X46801Y106042D01*
G01X46692Y106097D01*
G01X46529Y106097D01*
G01X45514Y106097D02*
G01X45514Y105333D01*
G01X45514Y105933D02*
G01X45623Y106042D01*
G01X45732Y106097D01*
G01X45896Y106097D01*
G01X46005Y106042D01*
G01X46114Y105933D01*
G01X46169Y105770D01*
G01X46169Y105661D01*
G01X46114Y105497D01*
G01X46005Y105388D01*
G01X45896Y105333D01*
G01X45732Y105333D01*
G01X45623Y105388D01*
G01X45514Y105497D01*
G01X44500Y105933D02*
G01X44609Y106042D01*
G01X44718Y106097D01*
G01X44881Y106097D01*
G01X44990Y106042D01*
G01X45100Y105933D01*
G01X45154Y105770D01*
G01X45154Y105661D01*
G01X45100Y105497D01*
G01X44990Y105388D01*
G01X44881Y105333D01*
G01X44718Y105333D01*
G01X44609Y105388D01*
G01X44500Y105497D01*
G01X44140Y106479D02*
G01X44140Y105333D01*
G01X43594Y106097D02*
G01X44140Y105552D01*
G01X43921Y105770D02*
G01X43540Y105333D01*
G01X42121Y106479D02*
G01X42067Y106424D01*
G01X42012Y106479D01*
G01X42067Y106533D01*
G01X42121Y106479D01*
G01X42067Y106097D02*
G01X42067Y105170D01*
G01X42121Y105006D01*
G01X42230Y104952D01*
G01X42340Y104952D01*
G01X40998Y106097D02*
G01X40998Y105333D01*
G01X40998Y105933D02*
G01X41107Y106042D01*
G01X41216Y106097D01*
G01X41380Y106097D01*
G01X41489Y106042D01*
G01X41598Y105933D01*
G01X41652Y105770D01*
G01X41652Y105661D01*
G01X41598Y105497D01*
G01X41489Y105388D01*
G01X41380Y105333D01*
G01X41216Y105333D01*
G01X41107Y105388D01*
G01X40998Y105497D01*
G01X39983Y105933D02*
G01X40092Y106042D01*
G01X40201Y106097D01*
G01X40365Y106097D01*
G01X40474Y106042D01*
G01X40583Y105933D01*
G01X40638Y105770D01*
G01X40638Y105661D01*
G01X40583Y105497D01*
G01X40474Y105388D01*
G01X40365Y105333D01*
G01X40201Y105333D01*
G01X40092Y105388D01*
G01X39983Y105497D01*
G01X39623Y106479D02*
G01X39623Y105333D01*
G01X39078Y106097D02*
G01X39623Y105552D01*
G01X39405Y105770D02*
G01X39023Y105333D01*
G01X37823Y106097D02*
G01X37823Y104952D01*
G01X37823Y105933D02*
G01X37714Y106042D01*
G01X37605Y106097D01*
G01X37441Y106097D01*
G01X37332Y106042D01*
G01X37223Y105933D01*
G01X37169Y105770D01*
G01X37169Y105661D01*
G01X37223Y105497D01*
G01X37332Y105388D01*
G01X37441Y105333D01*
G01X37605Y105333D01*
G01X37714Y105388D01*
G01X37823Y105497D01*
G01X36154Y105933D02*
G01X36263Y106042D01*
G01X36372Y106097D01*
G01X36536Y106097D01*
G01X36645Y106042D01*
G01X36754Y105933D01*
G01X36809Y105770D01*
G01X36809Y105661D01*
G01X36754Y105497D01*
G01X36645Y105388D01*
G01X36536Y105333D01*
G01X36372Y105333D01*
G01X36263Y105388D01*
G01X36154Y105497D01*
G01X35794Y106479D02*
G01X35794Y105333D01*
G01X35794Y105933D02*
G01X35685Y106042D01*
G01X35576Y106097D01*
G01X35412Y106097D01*
G01X35303Y106042D01*
G01X35194Y105933D01*
G01X35140Y105770D01*
G01X35140Y105661D01*
G01X35194Y105497D01*
G01X35303Y105388D01*
G01X35412Y105333D01*
G01X35576Y105333D01*
G01X35685Y105388D01*
G01X35794Y105497D01*
G01X33503Y106479D02*
G01X33612Y106479D01*
G01X33721Y106424D01*
G01X33776Y106261D01*
G01X33776Y105333D01*
G01X33940Y106097D02*
G01X33558Y106097D01*
G01X32870Y106097D02*
G01X32980Y106042D01*
G01X33089Y105933D01*
G01X33143Y105770D01*
G01X33143Y105661D01*
G01X33089Y105497D01*
G01X32980Y105388D01*
G01X32870Y105333D01*
G01X32707Y105333D01*
G01X32598Y105388D01*
G01X32489Y105497D01*
G01X32434Y105661D01*
G01X32434Y105770D01*
G01X32489Y105933D01*
G01X32598Y106042D01*
G01X32707Y106097D01*
G01X32870Y106097D01*
G01X32074Y106097D02*
G01X32074Y105333D01*
G01X32074Y105770D02*
G01X32020Y105933D01*
G01X31910Y106042D01*
G01X31801Y106097D01*
G01X31638Y106097D01*
G01X29892Y106479D02*
G01X29892Y105606D01*
G01X29947Y105442D01*
G01X30001Y105388D01*
G01X30110Y105333D01*
G01X30220Y105333D01*
G01X30329Y105388D01*
G01X30383Y105442D01*
G01X30438Y105606D01*
G01X30438Y105715D01*
G01X29532Y106097D02*
G01X29532Y105552D01*
G01X29478Y105388D01*
G01X29369Y105333D01*
G01X29205Y105333D01*
G01X29096Y105388D01*
G01X28932Y105552D01*
G01X28932Y106097D02*
G01X28932Y105333D01*
G01X28572Y106097D02*
G01X28572Y104952D01*
G01X28572Y105933D02*
G01X28463Y106042D01*
G01X28354Y106097D01*
G01X28190Y106097D01*
G01X28081Y106042D01*
G01X27972Y105933D01*
G01X27918Y105770D01*
G01X27918Y105661D01*
G01X27972Y105497D01*
G01X28081Y105388D01*
G01X28190Y105333D01*
G01X28354Y105333D01*
G01X28463Y105388D01*
G01X28572Y105497D01*
G01X27558Y106479D02*
G01X27503Y106424D01*
G01X27449Y106479D01*
G01X27503Y106533D01*
G01X27558Y106479D01*
G01X27503Y106097D02*
G01X27503Y105333D01*
G01X26925Y106479D02*
G01X26925Y105552D01*
G01X26870Y105388D01*
G01X26761Y105333D01*
G01X26652Y105333D01*
G01X27089Y106097D02*
G01X26707Y106097D01*
G01X26292Y105770D02*
G01X25638Y105770D01*
G01X25638Y105879D01*
G01X25692Y105988D01*
G01X25747Y106042D01*
G01X25856Y106097D01*
G01X26020Y106097D01*
G01X26129Y106042D01*
G01X26238Y105933D01*
G01X26292Y105770D01*
G01X26292Y105661D01*
G01X26238Y105497D01*
G01X26129Y105388D01*
G01X26020Y105333D01*
G01X25856Y105333D01*
G01X25747Y105388D01*
G01X25638Y105497D01*
G01X25278Y106097D02*
G01X25278Y105333D01*
G01X25278Y105770D02*
G01X25223Y105933D01*
G01X25114Y106042D01*
G01X25005Y106097D01*
G01X24841Y106097D01*
G01X22878Y106315D02*
G01X22987Y106424D01*
G01X23150Y106479D01*
G01X23369Y106479D01*
G01X23532Y106424D01*
G01X23641Y106315D01*
G01X23641Y106206D01*
G01X23587Y106097D01*
G01X23532Y106042D01*
G01X23423Y105988D01*
G01X23096Y105879D01*
G01X22987Y105824D01*
G01X22932Y105770D01*
G01X22878Y105661D01*
G01X22878Y105497D01*
G01X22987Y105388D01*
G01X23150Y105333D01*
G01X23369Y105333D01*
G01X23532Y105388D01*
G01X23641Y105497D01*
G01X22354Y106479D02*
G01X22354Y105552D01*
G01X22300Y105388D01*
G01X22190Y105333D01*
G01X22081Y105333D01*
G01X22518Y106097D02*
G01X22136Y106097D01*
G01X21449Y106097D02*
G01X21558Y106042D01*
G01X21667Y105933D01*
G01X21721Y105770D01*
G01X21721Y105661D01*
G01X21667Y105497D01*
G01X21558Y105388D01*
G01X21449Y105333D01*
G01X21285Y105333D01*
G01X21176Y105388D01*
G01X21067Y105497D01*
G01X21012Y105661D01*
G01X21012Y105770D01*
G01X21067Y105933D01*
G01X21176Y106042D01*
G01X21285Y106097D01*
G01X21449Y106097D01*
G01X20652Y106097D02*
G01X20652Y105333D01*
G01X20652Y105770D02*
G01X20598Y105933D01*
G01X20489Y106042D01*
G01X20380Y106097D01*
G01X20216Y106097D01*
G01X19856Y106097D02*
G01X19856Y105333D01*
G01X19856Y105879D02*
G01X19692Y106042D01*
G01X19583Y106097D01*
G01X19420Y106097D01*
G01X19310Y106042D01*
G01X19256Y105879D01*
G01X19256Y105333D01*
G01X19256Y105879D02*
G01X19092Y106042D01*
G01X18983Y106097D01*
G01X18820Y106097D01*
G01X18710Y106042D01*
G01X18656Y105879D01*
G01X18656Y105333D01*
G01X17456Y106479D02*
G01X17456Y105333D01*
G01X17456Y106479D02*
G01X17074Y106479D01*
G01X16910Y106424D01*
G01X16801Y106315D01*
G01X16747Y106206D01*
G01X16692Y106042D01*
G01X16692Y105770D01*
G01X16747Y105606D01*
G01X16801Y105497D01*
G01X16910Y105388D01*
G01X17074Y105333D01*
G01X17456Y105333D01*
G01X16332Y106479D02*
G01X16332Y105333D01*
G01X15972Y106479D02*
G01X15536Y105933D01*
G01X15536Y105333D01*
G01X15100Y106479D02*
G01X15536Y105933D01*
G01X13900Y106479D02*
G01X13900Y105333D01*
G01X13900Y106479D02*
G01X13191Y106479D01*
G01X13900Y105933D02*
G01X13463Y105933D01*
G01X13900Y105333D02*
G01X13191Y105333D01*
G01X12176Y106479D02*
G01X12176Y105333D01*
G01X12176Y105933D02*
G01X12285Y106042D01*
G01X12394Y106097D01*
G01X12558Y106097D01*
G01X12667Y106042D01*
G01X12776Y105933D01*
G01X12830Y105770D01*
G01X12830Y105661D01*
G01X12776Y105497D01*
G01X12667Y105388D01*
G01X12558Y105333D01*
G01X12394Y105333D01*
G01X12285Y105388D01*
G01X12176Y105497D01*
G01X11816Y106479D02*
G01X11761Y106424D01*
G01X11707Y106479D01*
G01X11761Y106533D01*
G01X11816Y106479D01*
G01X11761Y106097D02*
G01X11761Y105333D01*
G01X11183Y106479D02*
G01X11183Y105552D01*
G01X11129Y105388D01*
G01X11020Y105333D01*
G01X10911Y105333D01*
G01X11347Y106097D02*
G01X10965Y106097D01*
G01X10551Y106479D02*
G01X10496Y106424D01*
G01X10441Y106479D01*
G01X10496Y106533D01*
G01X10551Y106479D01*
G01X10496Y106097D02*
G01X10496Y105333D01*
G01X9809Y106097D02*
G01X9918Y106042D01*
G01X10027Y105933D01*
G01X10081Y105770D01*
G01X10081Y105661D01*
G01X10027Y105497D01*
G01X9918Y105388D01*
G01X9809Y105333D01*
G01X9645Y105333D01*
G01X9536Y105388D01*
G01X9427Y105497D01*
G01X9372Y105661D01*
G01X9372Y105770D01*
G01X9427Y105933D01*
G01X9536Y106042D01*
G01X9645Y106097D01*
G01X9809Y106097D01*
G01X9012Y106097D02*
G01X9012Y105333D01*
G01X9012Y105879D02*
G01X8849Y106042D01*
G01X8740Y106097D01*
G01X8576Y106097D01*
G01X8467Y106042D01*
G01X8412Y105879D01*
G01X8412Y105333D01*
G01X59681Y103684D02*
G01X59354Y102920D01*
G01X59027Y103684D02*
G01X59354Y102920D01*
G01X58666Y103848D02*
G01X58557Y103902D01*
G01X58394Y104066D01*
G01X58394Y102920D01*
G01X57979Y103193D02*
G01X58034Y103139D01*
G01X57979Y103084D01*
G01X57925Y103139D01*
G01X57979Y103193D01*
G01X57237Y104066D02*
G01X57401Y104011D01*
G01X57510Y103848D01*
G01X57565Y103575D01*
G01X57565Y103411D01*
G01X57510Y103139D01*
G01X57401Y102975D01*
G01X57237Y102920D01*
G01X57128Y102920D01*
G01X56965Y102975D01*
G01X56856Y103139D01*
G01X56801Y103411D01*
G01X56801Y103575D01*
G01X56856Y103848D01*
G01X56965Y104011D01*
G01X57128Y104066D01*
G01X57237Y104066D01*
G01X55056Y104066D02*
G01X55056Y103193D01*
G01X55110Y103029D01*
G01X55165Y102975D01*
G01X55274Y102920D01*
G01X55383Y102920D01*
G01X55492Y102975D01*
G01X55547Y103029D01*
G01X55601Y103193D01*
G01X55601Y103302D01*
G01X54696Y103684D02*
G01X54696Y103139D01*
G01X54641Y102975D01*
G01X54532Y102920D01*
G01X54368Y102920D01*
G01X54259Y102975D01*
G01X54096Y103139D01*
G01X54096Y103684D02*
G01X54096Y102920D01*
G01X53736Y103684D02*
G01X53736Y102920D01*
G01X53736Y103466D02*
G01X53572Y103629D01*
G01X53463Y103684D01*
G01X53299Y103684D01*
G01X53190Y103629D01*
G01X53136Y103466D01*
G01X53136Y102920D01*
G01X52776Y103357D02*
G01X52121Y103357D01*
G01X52121Y103466D01*
G01X52176Y103575D01*
G01X52230Y103629D01*
G01X52339Y103684D01*
G01X52503Y103684D01*
G01X52612Y103629D01*
G01X52721Y103520D01*
G01X52776Y103357D01*
G01X52776Y103248D01*
G01X52721Y103084D01*
G01X52612Y102975D01*
G01X52503Y102920D01*
G01X52339Y102920D01*
G01X52230Y102975D01*
G01X52121Y103084D01*
G01X50867Y103793D02*
G01X50867Y103848D01*
G01X50812Y103957D01*
G01X50757Y104011D01*
G01X50648Y104066D01*
G01X50430Y104066D01*
G01X50321Y104011D01*
G01X50267Y103957D01*
G01X50212Y103848D01*
G01X50212Y103739D01*
G01X50267Y103629D01*
G01X50376Y103466D01*
G01X50921Y102920D01*
G01X50157Y102920D01*
G01X49470Y104066D02*
G01X49634Y104011D01*
G01X49743Y103848D01*
G01X49797Y103575D01*
G01X49797Y103411D01*
G01X49743Y103139D01*
G01X49634Y102975D01*
G01X49470Y102920D01*
G01X49361Y102920D01*
G01X49197Y102975D01*
G01X49088Y103139D01*
G01X49034Y103411D01*
G01X49034Y103575D01*
G01X49088Y103848D01*
G01X49197Y104011D01*
G01X49361Y104066D01*
G01X49470Y104066D01*
G01X48674Y103848D02*
G01X48565Y103902D01*
G01X48401Y104066D01*
G01X48401Y102920D01*
G01X47768Y104066D02*
G01X47932Y104011D01*
G01X47987Y103902D01*
G01X47987Y103793D01*
G01X47932Y103684D01*
G01X47823Y103629D01*
G01X47605Y103575D01*
G01X47441Y103520D01*
G01X47332Y103411D01*
G01X47277Y103302D01*
G01X47277Y103139D01*
G01X47332Y103029D01*
G01X47387Y102975D01*
G01X47550Y102920D01*
G01X47768Y102920D01*
G01X47932Y102975D01*
G01X47987Y103029D01*
G01X48041Y103139D01*
G01X48041Y103302D01*
G01X47987Y103411D01*
G01X47877Y103520D01*
G01X47714Y103575D01*
G01X47496Y103629D01*
G01X47387Y103684D01*
G01X47332Y103793D01*
G01X47332Y103902D01*
G01X47387Y104011D01*
G01X47550Y104066D01*
G01X47768Y104066D01*
G01X46077Y103684D02*
G01X46077Y102920D01*
G01X46077Y103357D02*
G01X46023Y103520D01*
G01X45914Y103629D01*
G01X45805Y103684D01*
G01X45641Y103684D01*
G01X45008Y103684D02*
G01X45117Y103629D01*
G01X45227Y103520D01*
G01X45281Y103357D01*
G01X45281Y103248D01*
G01X45227Y103084D01*
G01X45117Y102975D01*
G01X45008Y102920D01*
G01X44845Y102920D01*
G01X44736Y102975D01*
G01X44627Y103084D01*
G01X44572Y103248D01*
G01X44572Y103357D01*
G01X44627Y103520D01*
G01X44736Y103629D01*
G01X44845Y103684D01*
G01X45008Y103684D01*
G01X43612Y103520D02*
G01X43667Y103629D01*
G01X43830Y103684D01*
G01X43994Y103684D01*
G01X44157Y103629D01*
G01X44212Y103520D01*
G01X44157Y103411D01*
G01X44048Y103357D01*
G01X43776Y103302D01*
G01X43667Y103248D01*
G01X43612Y103139D01*
G01X43612Y103084D01*
G01X43667Y102975D01*
G01X43830Y102920D01*
G01X43994Y102920D01*
G01X44157Y102975D01*
G01X44212Y103084D01*
G01X42652Y103520D02*
G01X42707Y103629D01*
G01X42870Y103684D01*
G01X43034Y103684D01*
G01X43197Y103629D01*
G01X43252Y103520D01*
G01X43197Y103411D01*
G01X43088Y103357D01*
G01X42816Y103302D01*
G01X42707Y103248D01*
G01X42652Y103139D01*
G01X42652Y103084D01*
G01X42707Y102975D01*
G01X42870Y102920D01*
G01X43034Y102920D01*
G01X43197Y102975D01*
G01X43252Y103084D01*
G01X41474Y103629D02*
G01X41528Y103739D01*
G01X41637Y103793D01*
G01X41801Y103793D01*
G01X41910Y103739D01*
G01X41965Y103684D01*
G01X42019Y103520D01*
G01X42019Y103357D01*
G01X41965Y103248D01*
G01X41856Y103193D01*
G01X41692Y103193D01*
G01X41583Y103248D01*
G01X41528Y103357D01*
G01X41801Y103793D02*
G01X41910Y103684D01*
G01X41965Y103520D01*
G01X41965Y103357D01*
G01X41910Y103248D01*
G01X41856Y103193D01*
G01X41474Y103793D02*
G01X41528Y103357D01*
G01X41528Y103248D01*
G01X41419Y103193D01*
G01X41310Y103193D01*
G01X41201Y103302D01*
G01X41147Y103466D01*
G01X41147Y103575D01*
G01X41201Y103739D01*
G01X41256Y103848D01*
G01X41365Y103957D01*
G01X41474Y104011D01*
G01X41637Y104066D01*
G01X41801Y104066D01*
G01X41965Y104011D01*
G01X42074Y103957D01*
G01X42183Y103848D01*
G01X42237Y103739D01*
G01X42292Y103575D01*
G01X42292Y103411D01*
G01X42237Y103248D01*
G01X42183Y103139D01*
G01X42074Y103029D01*
G01X41965Y102975D01*
G01X41801Y102920D01*
G01X41637Y102920D01*
G01X41474Y102975D01*
G01X41365Y103029D01*
G01X41310Y103084D01*
G01X41419Y103793D02*
G01X41474Y103357D01*
G01X41474Y103248D01*
G01X41419Y103193D01*
G01X40787Y103684D02*
G01X40787Y102920D01*
G01X40787Y103357D02*
G01X40732Y103520D01*
G01X40623Y103629D01*
G01X40514Y103684D01*
G01X40350Y103684D01*
G01X39717Y103684D02*
G01X39827Y103629D01*
G01X39936Y103520D01*
G01X39990Y103357D01*
G01X39990Y103248D01*
G01X39936Y103084D01*
G01X39827Y102975D01*
G01X39717Y102920D01*
G01X39554Y102920D01*
G01X39445Y102975D01*
G01X39336Y103084D01*
G01X39281Y103248D01*
G01X39281Y103357D01*
G01X39336Y103520D01*
G01X39445Y103629D01*
G01X39554Y103684D01*
G01X39717Y103684D01*
G01X38321Y103520D02*
G01X38376Y103629D01*
G01X38539Y103684D01*
G01X38703Y103684D01*
G01X38867Y103629D01*
G01X38921Y103520D01*
G01X38867Y103411D01*
G01X38757Y103357D01*
G01X38485Y103302D01*
G01X38376Y103248D01*
G01X38321Y103139D01*
G01X38321Y103084D01*
G01X38376Y102975D01*
G01X38539Y102920D01*
G01X38703Y102920D01*
G01X38867Y102975D01*
G01X38921Y103084D01*
G01X37361Y103520D02*
G01X37416Y103629D01*
G01X37579Y103684D01*
G01X37743Y103684D01*
G01X37907Y103629D01*
G01X37961Y103520D01*
G01X37907Y103411D01*
G01X37797Y103357D01*
G01X37525Y103302D01*
G01X37416Y103248D01*
G01X37361Y103139D01*
G01X37361Y103084D01*
G01X37416Y102975D01*
G01X37579Y102920D01*
G01X37743Y102920D01*
G01X37907Y102975D01*
G01X37961Y103084D01*
G01X36347Y103684D02*
G01X36347Y102811D01*
G01X36401Y102648D01*
G01X36456Y102593D01*
G01X36565Y102539D01*
G01X36728Y102539D01*
G01X36837Y102593D01*
G01X36347Y103520D02*
G01X36456Y103629D01*
G01X36565Y103684D01*
G01X36728Y103684D01*
G01X36837Y103629D01*
G01X36947Y103520D01*
G01X37001Y103357D01*
G01X37001Y103248D01*
G01X36947Y103084D01*
G01X36837Y102975D01*
G01X36728Y102920D01*
G01X36565Y102920D01*
G01X36456Y102975D01*
G01X36347Y103084D01*
G01X35987Y103684D02*
G01X35987Y102920D01*
G01X35987Y103357D02*
G01X35932Y103520D01*
G01X35823Y103629D01*
G01X35714Y103684D01*
G01X35550Y103684D01*
G01X34536Y103684D02*
G01X34536Y102920D01*
G01X34536Y103520D02*
G01X34645Y103629D01*
G01X34754Y103684D01*
G01X34917Y103684D01*
G01X35027Y103629D01*
G01X35136Y103520D01*
G01X35190Y103357D01*
G01X35190Y103248D01*
G01X35136Y103084D01*
G01X35027Y102975D01*
G01X34917Y102920D01*
G01X34754Y102920D01*
G01X34645Y102975D01*
G01X34536Y103084D01*
G01X33521Y104066D02*
G01X33521Y102920D01*
G01X33521Y103520D02*
G01X33630Y103629D01*
G01X33739Y103684D01*
G01X33903Y103684D01*
G01X34012Y103629D01*
G01X34121Y103520D01*
G01X34176Y103357D01*
G01X34176Y103248D01*
G01X34121Y103084D01*
G01X34012Y102975D01*
G01X33903Y102920D01*
G01X33739Y102920D01*
G01X33630Y102975D01*
G01X33521Y103084D01*
G01X33107Y103684D02*
G01X32779Y102920D01*
G01X32452Y103684D02*
G01X32779Y102920D01*
G01X32888Y102702D01*
G01X32997Y102593D01*
G01X33107Y102539D01*
G01X33161Y102539D01*
G01X32037Y103193D02*
G01X32092Y103139D01*
G01X32037Y103084D01*
G01X31983Y103139D01*
G01X32037Y103193D01*
G01X31350Y103684D02*
G01X31459Y103629D01*
G01X31568Y103520D01*
G01X31623Y103357D01*
G01X31623Y103248D01*
G01X31568Y103084D01*
G01X31459Y102975D01*
G01X31350Y102920D01*
G01X31187Y102920D01*
G01X31077Y102975D01*
G01X30968Y103084D01*
G01X30914Y103248D01*
G01X30914Y103357D01*
G01X30968Y103520D01*
G01X31077Y103629D01*
G01X31187Y103684D01*
G01X31350Y103684D01*
G01X30554Y103684D02*
G01X30554Y102920D01*
G01X30554Y103357D02*
G01X30499Y103520D01*
G01X30390Y103629D01*
G01X30281Y103684D01*
G01X30117Y103684D01*
G01X29103Y103684D02*
G01X29103Y102811D01*
G01X29157Y102648D01*
G01X29212Y102593D01*
G01X29321Y102539D01*
G01X29485Y102539D01*
G01X29594Y102593D01*
G01X29103Y103520D02*
G01X29212Y103629D01*
G01X29321Y103684D01*
G01X29485Y103684D01*
G01X29594Y103629D01*
G01X29703Y103520D01*
G01X29757Y103357D01*
G01X29757Y103248D01*
G01X29703Y103084D01*
G01X29594Y102975D01*
G01X29485Y102920D01*
G01X29321Y102920D01*
G01X29212Y102975D01*
G01X29103Y103084D01*
M00*
M02*
