G04 ---------------------------- Layer name :TOP LAYER*
G04 EasyEDA v5.6.10, Fri, 20 Jul 2018 15:00:38 GMT*
G04 107905ebd11d4209b34b6b689eea119d*
G04 Gerber Generator version 0.2*
G04 Scale: 100 percent, Rotated: No, Reflected: No *
G04 Dimensions in millimeters *
G04 leading zeros omitted , absolute positions ,3 integer and 3 decimal *
%FSLAX33Y33*%
%MOMM*%
G90*
G71D02*

%ADD11C,0.399999*%
%ADD12C,0.610006*%
%ADD13R,1.649984X1.649984*%
%ADD14C,3.116072*%
%ADD15C,1.507998*%
%ADD16R,1.574800X1.574800*%
%ADD17C,1.574800*%
%ADD18C,1.501140*%
%ADD19C,1.524000*%
%ADD20R,1.699997X1.699997*%
%ADD21C,1.699997*%
%ADD22C,3.499993*%

%LPD*%
G54D11*
G01X25001Y15513D02*
G01X24696Y15818D01*
G01X24696Y18596D01*
G01X8525Y21837D02*
G01X24974Y21837D01*
G01X25008Y21870D01*
G01X25008Y21870D02*
G01X41473Y21870D01*
G01X41523Y21921D01*
G01X41523Y21921D02*
G01X58285Y21921D01*
G01X58303Y21939D01*
G01X58303Y21939D02*
G01X60916Y21939D01*
G01X65014Y26037D01*
G01X10096Y87387D02*
G01X6670Y87387D01*
G01X922Y93135D01*
G01X922Y98243D01*
G01X2212Y99533D01*
G01X12595Y87388D02*
G01X12595Y88258D01*
G01X11209Y89644D01*
G01X9562Y89644D01*
G01X2212Y96993D01*
G01X8694Y15513D02*
G01X8694Y17864D01*
G01X4478Y22080D01*
G01X4478Y23536D01*
G01X1947Y26067D01*
G54D13*
G01X10095Y87388D03*
G36*
G01X12911Y86626D02*
G01X13357Y87072D01*
G01X13357Y87704D01*
G01X12911Y88150D01*
G01X12280Y88150D01*
G01X11833Y87704D01*
G01X11833Y87072D01*
G01X12280Y86626D01*
G01X12911Y86626D01*
G37*
G36*
G01X15411Y86626D02*
G01X15857Y87072D01*
G01X15857Y87704D01*
G01X15411Y88150D01*
G01X14779Y88150D01*
G01X14333Y87704D01*
G01X14333Y87072D01*
G01X14779Y86626D01*
G01X15411Y86626D01*
G37*
G54D14*
G01X17095Y94388D03*
G01X8095Y94388D03*
G54D13*
G01X30603Y87388D03*
G36*
G01X33419Y86626D02*
G01X33865Y87072D01*
G01X33865Y87704D01*
G01X33419Y88150D01*
G01X32787Y88150D01*
G01X32341Y87704D01*
G01X32341Y87072D01*
G01X32787Y86626D01*
G01X33419Y86626D01*
G37*
G36*
G01X35919Y86626D02*
G01X36365Y87072D01*
G01X36365Y87704D01*
G01X35919Y88150D01*
G01X35287Y88150D01*
G01X34841Y87704D01*
G01X34841Y87072D01*
G01X35287Y86626D01*
G01X35919Y86626D01*
G37*
G54D14*
G01X37603Y94388D03*
G01X28603Y94388D03*
G54D13*
G01X51009Y87490D03*
G36*
G01X53825Y86728D02*
G01X54272Y87174D01*
G01X54272Y87806D01*
G01X53825Y88252D01*
G01X53194Y88252D01*
G01X52747Y87806D01*
G01X52747Y87174D01*
G01X53194Y86728D01*
G01X53825Y86728D01*
G37*
G36*
G01X56325Y86728D02*
G01X56772Y87174D01*
G01X56772Y87806D01*
G01X56325Y88252D01*
G01X55694Y88252D01*
G01X55247Y87806D01*
G01X55247Y87174D01*
G01X55694Y86728D01*
G01X56325Y86728D01*
G37*
G54D14*
G01X58010Y94490D03*
G01X49010Y94490D03*
G54D15*
G01X22898Y72999D03*
G01X22898Y70459D03*
G01X22898Y67919D03*
G01X43398Y72999D03*
G01X43398Y70459D03*
G01X43398Y67919D03*
G54D16*
G01X2181Y63022D03*
G54D17*
G01X2181Y65562D03*
G01X2213Y99533D03*
G01X2213Y96993D03*
G54D16*
G01X2213Y94453D03*
G54D17*
G01X2265Y88484D03*
G01X2265Y85944D03*
G54D16*
G01X2265Y83404D03*
G54D17*
G01X2446Y77562D03*
G01X2446Y75022D03*
G54D16*
G01X2446Y72482D03*
G54D17*
G01X2117Y53522D03*
G01X2117Y56062D03*
G54D16*
G01X2117Y58602D03*
G54D18*
G01X12669Y51164D03*
G01X12669Y42655D03*
G01X12669Y39658D03*
G01X33162Y51182D03*
G01X33162Y42673D03*
G01X33162Y39676D03*
G01X53685Y51182D03*
G01X53685Y42673D03*
G01X53685Y39676D03*
G01X8525Y33343D03*
G01X8525Y24834D03*
G01X8525Y21837D03*
G01X25008Y33377D03*
G01X25008Y24868D03*
G01X25008Y21870D03*
G01X41523Y33427D03*
G01X41523Y24918D03*
G01X41523Y21921D03*
G01X58303Y33445D03*
G01X58303Y24936D03*
G01X58303Y21939D03*
G01X8694Y15513D03*
G01X8694Y7004D03*
G01X8694Y4007D03*
G01X25001Y15513D03*
G01X25001Y7004D03*
G01X25001Y4007D03*
G01X41513Y15513D03*
G01X41513Y7004D03*
G01X41513Y4007D03*
G01X58277Y15503D03*
G01X58277Y6994D03*
G01X58277Y3996D03*
G54D19*
G01X2048Y49139D03*
G01X2048Y46599D03*
G01X2048Y44059D03*
G01X2048Y41519D03*
G54D20*
G01X65014Y15877D03*
G54D21*
G01X65014Y18417D03*
G01X65014Y20957D03*
G01X65014Y23497D03*
G01X65014Y26037D03*
G54D20*
G01X1947Y26067D03*
G54D21*
G01X1947Y23527D03*
G01X1947Y20987D03*
G01X1947Y18447D03*
G01X1947Y15907D03*
G54D22*
G01X64075Y104961D03*
G01X63914Y3090D03*
G54D12*
G01X24696Y18596D03*
M00*
M02*
