G04 ---------------------------- Layer name :TOP SILK LAYER*
G04 EasyEDA v5.6.10, Fri, 20 Jul 2018 15:00:38 GMT*
G04 107905ebd11d4209b34b6b689eea119d*
G04 Gerber Generator version 0.2*
G04 Scale: 100 percent, Rotated: No, Reflected: No *
G04 Dimensions in millimeters *
G04 leading zeros omitted , absolute positions ,3 integer and 3 decimal *
%FSLAX33Y33*%
%MOMM*%
G90*
G71D02*

%ADD10C,0.254000*%
%ADD23C,0.203200*%
%ADD24C,0.127000*%
%ADD25C,0.202999*%
%ADD26C,0.050800*%
%ADD27C,0.177800*%

%LPD*%
G54D23*
G01X7945Y97038D02*
G01X7945Y99238D01*
G01X8495Y99238D01*
G01X8495Y99788D01*
G01X16695Y99788D01*
G01X16695Y99238D01*
G01X17245Y99238D01*
G01X17245Y97038D01*
G01X17245Y92238D02*
G01X17245Y89038D01*
G01X16695Y89038D01*
G01X16695Y88488D01*
G01X8495Y88488D01*
G01X8495Y89038D01*
G01X7945Y89038D01*
G01X7945Y92238D01*
G01X28453Y97038D02*
G01X28453Y99238D01*
G01X29003Y99238D01*
G01X29003Y99788D01*
G01X37203Y99788D01*
G01X37203Y99238D01*
G01X37753Y99238D01*
G01X37753Y97038D01*
G01X37753Y92238D02*
G01X37753Y89038D01*
G01X37203Y89038D01*
G01X37203Y88488D01*
G01X29003Y88488D01*
G01X29003Y89038D01*
G01X28453Y89038D01*
G01X28453Y92238D01*
G01X48859Y97140D02*
G01X48859Y99340D01*
G01X49409Y99340D01*
G01X49409Y99890D01*
G01X57609Y99890D01*
G01X57609Y99340D01*
G01X58160Y99340D01*
G01X58160Y97140D01*
G01X58160Y92340D02*
G01X58160Y89140D01*
G01X57609Y89140D01*
G01X57609Y88590D01*
G01X49409Y88590D01*
G01X49409Y89140D01*
G01X48859Y89140D01*
G01X48859Y92340D01*
G54D24*
G01X25438Y74559D02*
G01X25438Y66359D01*
G01X20358Y66359D01*
G01X20358Y74559D01*
G01X25438Y74559D01*
G01X45938Y74559D02*
G01X45938Y66359D01*
G01X40858Y66359D01*
G01X40858Y74559D01*
G01X45938Y74559D01*
G54D23*
G01X910Y66832D02*
G01X3450Y66832D01*
G01X3450Y61752D01*
G01X910Y61752D01*
G01X910Y63657D01*
G54D25*
G01X910Y66832D02*
G01X910Y63657D01*
G54D23*
G01X942Y95088D02*
G01X942Y93183D01*
G01X3482Y93183D01*
G01X3482Y100803D01*
G01X942Y100803D01*
G54D25*
G01X942Y100803D02*
G01X942Y95088D01*
G54D23*
G01X995Y84039D02*
G01X995Y82134D01*
G01X3535Y82134D01*
G01X3535Y89754D01*
G01X995Y89754D01*
G54D25*
G01X995Y89754D02*
G01X995Y84039D01*
G54D23*
G01X1175Y73117D02*
G01X1175Y71212D01*
G01X3715Y71212D01*
G01X3715Y78832D01*
G01X1175Y78832D01*
G54D25*
G01X1175Y78832D02*
G01X1175Y73117D01*
G54D23*
G01X3386Y57967D02*
G01X3386Y59872D01*
G01X846Y59872D01*
G01X846Y52252D01*
G01X3386Y52252D01*
G54D25*
G01X3386Y52252D02*
G01X3386Y57967D01*
G54D10*
G01X17165Y52155D02*
G01X17165Y41665D01*
G01X12872Y41665D01*
G01X8173Y41665D01*
G01X8173Y52155D01*
G01X11170Y52155D01*
G01X14168Y52155D01*
G01X17165Y52155D01*
G01X11170Y52155D02*
G01X11170Y50148D01*
G01X14168Y50148D01*
G01X14168Y52155D01*
G01X12466Y41563D02*
G01X12466Y39455D01*
G01X12872Y39455D01*
G01X12872Y41665D01*
G01X37658Y52173D02*
G01X37658Y41682D01*
G01X33365Y41682D01*
G01X28666Y41682D01*
G01X28666Y52173D01*
G01X31663Y52173D01*
G01X34660Y52173D01*
G01X37658Y52173D01*
G01X31663Y52173D02*
G01X31663Y50166D01*
G01X34660Y50166D01*
G01X34660Y52173D01*
G01X32959Y41581D02*
G01X32959Y39473D01*
G01X33365Y39473D01*
G01X33365Y41682D01*
G01X58181Y52173D02*
G01X58181Y41682D01*
G01X53888Y41682D01*
G01X49189Y41682D01*
G01X49189Y52173D01*
G01X52186Y52173D01*
G01X55184Y52173D01*
G01X58181Y52173D01*
G01X52186Y52173D02*
G01X52186Y50166D01*
G01X55184Y50166D01*
G01X55184Y52173D01*
G01X53482Y41581D02*
G01X53482Y39473D01*
G01X53888Y39473D01*
G01X53888Y41682D01*
G01X13021Y34333D02*
G01X13021Y23843D01*
G01X8728Y23843D01*
G01X4029Y23843D01*
G01X4029Y34333D01*
G01X7026Y34333D01*
G01X10023Y34333D01*
G01X13021Y34333D01*
G01X7026Y34333D02*
G01X7026Y32327D01*
G01X10023Y32327D01*
G01X10023Y34333D01*
G01X8322Y23742D02*
G01X8322Y21633D01*
G01X8728Y21633D01*
G01X8728Y23843D01*
G01X29503Y34367D02*
G01X29503Y23877D01*
G01X25211Y23877D01*
G01X20512Y23877D01*
G01X20512Y34367D01*
G01X23509Y34367D01*
G01X26506Y34367D01*
G01X29503Y34367D01*
G01X23509Y34367D02*
G01X23509Y32361D01*
G01X26506Y32361D01*
G01X26506Y34367D01*
G01X24804Y23775D02*
G01X24804Y21667D01*
G01X25211Y21667D01*
G01X25211Y23877D01*
G01X46019Y34418D02*
G01X46019Y23928D01*
G01X41727Y23928D01*
G01X37028Y23928D01*
G01X37028Y34418D01*
G01X40025Y34418D01*
G01X43022Y34418D01*
G01X46019Y34418D01*
G01X40025Y34418D02*
G01X40025Y32411D01*
G01X43022Y32411D01*
G01X43022Y34418D01*
G01X41320Y23826D02*
G01X41320Y21718D01*
G01X41727Y21718D01*
G01X41727Y23928D01*
G01X62798Y34436D02*
G01X62798Y23946D01*
G01X58506Y23946D01*
G01X53807Y23946D01*
G01X53807Y34436D01*
G01X56804Y34436D01*
G01X59801Y34436D01*
G01X62798Y34436D01*
G01X56804Y34436D02*
G01X56804Y32429D01*
G01X59801Y32429D01*
G01X59801Y34436D01*
G01X58099Y23844D02*
G01X58099Y21736D01*
G01X58506Y21736D01*
G01X58506Y23946D01*
G01X13190Y16503D02*
G01X13190Y6013D01*
G01X8897Y6013D01*
G01X4198Y6013D01*
G01X4198Y16503D01*
G01X7195Y16503D01*
G01X10193Y16503D01*
G01X13190Y16503D01*
G01X7195Y16503D02*
G01X7195Y14497D01*
G01X10193Y14497D01*
G01X10193Y16503D01*
G01X8491Y5912D02*
G01X8491Y3803D01*
G01X8897Y3803D01*
G01X8897Y6013D01*
G01X29497Y16503D02*
G01X29497Y6013D01*
G01X25204Y6013D01*
G01X20505Y6013D01*
G01X20505Y16503D01*
G01X23502Y16503D01*
G01X26499Y16503D01*
G01X29497Y16503D01*
G01X23502Y16503D02*
G01X23502Y14497D01*
G01X26499Y14497D01*
G01X26499Y16503D01*
G01X24798Y5912D02*
G01X24798Y3803D01*
G01X25204Y3803D01*
G01X25204Y6013D01*
G01X46009Y16503D02*
G01X46009Y6013D01*
G01X41716Y6013D01*
G01X37017Y6013D01*
G01X37017Y16503D01*
G01X40015Y16503D01*
G01X43012Y16503D01*
G01X46009Y16503D01*
G01X40015Y16503D02*
G01X40015Y14497D01*
G01X43012Y14497D01*
G01X43012Y16503D01*
G01X41310Y5912D02*
G01X41310Y3803D01*
G01X41716Y3803D01*
G01X41716Y6013D01*
G01X62773Y16493D02*
G01X62773Y6003D01*
G01X58480Y6003D01*
G01X53781Y6003D01*
G01X53781Y16493D01*
G01X56779Y16493D01*
G01X59776Y16493D01*
G01X62773Y16493D01*
G01X56779Y16493D02*
G01X56779Y14487D01*
G01X59776Y14487D01*
G01X59776Y16493D01*
G01X58074Y5901D02*
G01X58074Y3793D01*
G01X58480Y3793D01*
G01X58480Y6003D01*
G01X1413Y42789D02*
G01X778Y43424D01*
G01X778Y44694D01*
G01X1413Y45329D01*
G01X2683Y45329D02*
G01X3318Y45964D01*
G01X3318Y47234D01*
G01X2683Y47869D01*
G01X1413Y45329D02*
G01X778Y45964D01*
G01X778Y47234D01*
G01X1413Y47869D01*
G01X2683Y40249D02*
G01X1413Y40249D01*
G01X2683Y47869D02*
G01X3318Y48504D01*
G01X3318Y49774D01*
G01X2683Y50409D01*
G01X1413Y47869D02*
G01X778Y48504D01*
G01X778Y49774D01*
G01X1413Y50409D01*
G01X2683Y50409D02*
G01X1413Y50409D01*
G01X2683Y40249D02*
G01X3318Y40884D01*
G01X3318Y42154D01*
G01X2683Y42789D01*
G01X1413Y40249D02*
G01X778Y40884D01*
G01X778Y42154D01*
G01X1413Y42789D01*
G01X2683Y42789D02*
G01X3318Y43424D01*
G01X3318Y44694D01*
G01X2683Y45329D01*
G01X63490Y14353D02*
G01X63490Y27561D01*
G01X66538Y27561D01*
G01X66538Y14353D01*
G01X63490Y14353D01*
G01X63490Y17147D02*
G01X66538Y17147D01*
G01X3471Y27591D02*
G01X3471Y14383D01*
G01X423Y14383D01*
G01X423Y27591D01*
G01X3471Y27591D01*
G01X3471Y24797D02*
G01X423Y24797D01*
G54D27*
G01X12381Y101727D02*
G01X12798Y100637D01*
G01X13212Y101727D02*
G01X12798Y100637D01*
G01X13555Y101727D02*
G01X13555Y100637D01*
G01X13555Y101727D02*
G01X14022Y101727D01*
G01X14179Y101676D01*
G01X14230Y101625D01*
G01X14284Y101521D01*
G01X14284Y101417D01*
G01X14230Y101312D01*
G01X14179Y101259D01*
G01X14022Y101208D01*
G01X13555Y101208D01*
G01X13918Y101208D02*
G01X14284Y100637D01*
G01X14626Y101521D02*
G01X14731Y101572D01*
G01X14886Y101727D01*
G01X14886Y100637D01*
G01X32889Y101727D02*
G01X33306Y100637D01*
G01X33720Y101727D02*
G01X33306Y100637D01*
G01X34063Y101727D02*
G01X34063Y100637D01*
G01X34063Y101727D02*
G01X34530Y101727D01*
G01X34687Y101676D01*
G01X34738Y101625D01*
G01X34792Y101521D01*
G01X34792Y101417D01*
G01X34738Y101312D01*
G01X34687Y101259D01*
G01X34530Y101208D01*
G01X34063Y101208D01*
G01X34426Y101208D02*
G01X34792Y100637D01*
G01X35185Y101467D02*
G01X35185Y101521D01*
G01X35239Y101625D01*
G01X35289Y101676D01*
G01X35394Y101727D01*
G01X35602Y101727D01*
G01X35706Y101676D01*
G01X35757Y101625D01*
G01X35810Y101521D01*
G01X35810Y101417D01*
G01X35757Y101312D01*
G01X35653Y101155D01*
G01X35134Y100637D01*
G01X35861Y100637D01*
G01X53295Y101828D02*
G01X53712Y100738D01*
G01X54126Y101828D02*
G01X53712Y100738D01*
G01X54469Y101828D02*
G01X54469Y100738D01*
G01X54469Y101828D02*
G01X54936Y101828D01*
G01X55094Y101777D01*
G01X55145Y101727D01*
G01X55198Y101622D01*
G01X55198Y101518D01*
G01X55145Y101414D01*
G01X55094Y101361D01*
G01X54936Y101310D01*
G01X54469Y101310D01*
G01X54832Y101310D02*
G01X55198Y100738D01*
G01X55645Y101828D02*
G01X56216Y101828D01*
G01X55904Y101414D01*
G01X56059Y101414D01*
G01X56163Y101361D01*
G01X56216Y101310D01*
G01X56267Y101155D01*
G01X56267Y101051D01*
G01X56216Y100893D01*
G01X56112Y100789D01*
G01X55955Y100738D01*
G01X55800Y100738D01*
G01X55645Y100789D01*
G01X55592Y100843D01*
G01X55541Y100947D01*
G01X27869Y71493D02*
G01X27764Y71440D01*
G01X27660Y71336D01*
G01X27610Y71234D01*
G01X27610Y71026D01*
G01X27660Y70922D01*
G01X27764Y70817D01*
G01X27869Y70764D01*
G01X28024Y70713D01*
G01X28283Y70713D01*
G01X28440Y70764D01*
G01X28544Y70817D01*
G01X28648Y70922D01*
G01X28699Y71026D01*
G01X28699Y71234D01*
G01X28648Y71336D01*
G01X28544Y71440D01*
G01X28440Y71493D01*
G01X28283Y71493D01*
G01X28283Y71234D02*
G01X28283Y71493D01*
G01X27401Y72095D02*
G01X28907Y72095D01*
G01X27401Y72303D02*
G01X28907Y72303D01*
G01X27764Y72562D02*
G01X27660Y72458D01*
G01X27610Y72303D01*
G01X27610Y72095D01*
G01X27660Y71940D01*
G01X27764Y71836D01*
G01X27869Y71836D01*
G01X27973Y71887D01*
G01X28024Y71940D01*
G01X28077Y72044D01*
G01X28181Y72354D01*
G01X28232Y72458D01*
G01X28283Y72512D01*
G01X28387Y72562D01*
G01X28544Y72562D01*
G01X28648Y72458D01*
G01X28699Y72303D01*
G01X28699Y72095D01*
G01X28648Y71940D01*
G01X28544Y71836D01*
G01X27815Y72905D02*
G01X27764Y73010D01*
G01X27610Y73164D01*
G01X28699Y73164D01*
G01X48369Y71493D02*
G01X48264Y71440D01*
G01X48160Y71336D01*
G01X48110Y71234D01*
G01X48110Y71026D01*
G01X48160Y70922D01*
G01X48264Y70817D01*
G01X48369Y70764D01*
G01X48524Y70713D01*
G01X48783Y70713D01*
G01X48940Y70764D01*
G01X49044Y70817D01*
G01X49148Y70922D01*
G01X49199Y71026D01*
G01X49199Y71234D01*
G01X49148Y71336D01*
G01X49044Y71440D01*
G01X48940Y71493D01*
G01X48783Y71493D01*
G01X48783Y71234D02*
G01X48783Y71493D01*
G01X47901Y72095D02*
G01X49407Y72095D01*
G01X47901Y72303D02*
G01X49407Y72303D01*
G01X48264Y72562D02*
G01X48160Y72458D01*
G01X48110Y72303D01*
G01X48110Y72095D01*
G01X48160Y71940D01*
G01X48264Y71836D01*
G01X48369Y71836D01*
G01X48473Y71887D01*
G01X48524Y71940D01*
G01X48577Y72044D01*
G01X48681Y72354D01*
G01X48732Y72458D01*
G01X48783Y72512D01*
G01X48887Y72562D01*
G01X49044Y72562D01*
G01X49148Y72458D01*
G01X49199Y72303D01*
G01X49199Y72095D01*
G01X49148Y71940D01*
G01X49044Y71836D01*
G01X48369Y72959D02*
G01X48315Y72959D01*
G01X48211Y73010D01*
G01X48160Y73063D01*
G01X48110Y73164D01*
G01X48110Y73373D01*
G01X48160Y73477D01*
G01X48211Y73530D01*
G01X48315Y73581D01*
G01X48419Y73581D01*
G01X48524Y73530D01*
G01X48681Y73426D01*
G01X49199Y72905D01*
G01X49199Y73634D01*
G01X4847Y63899D02*
G01X4847Y62809D01*
G01X5574Y63899D02*
G01X5574Y62809D01*
G01X4847Y63381D02*
G01X5574Y63381D01*
G01X5970Y63640D02*
G01X5970Y63693D01*
G01X6021Y63797D01*
G01X6074Y63848D01*
G01X6178Y63899D01*
G01X6384Y63899D01*
G01X6488Y63848D01*
G01X6542Y63797D01*
G01X6592Y63693D01*
G01X6592Y63589D01*
G01X6542Y63485D01*
G01X6438Y63327D01*
G01X5917Y62809D01*
G01X6646Y62809D01*
G01X4511Y96612D02*
G01X5601Y96612D01*
G01X4511Y96612D02*
G01X4511Y97080D01*
G01X4562Y97235D01*
G01X4613Y97288D01*
G01X4717Y97339D01*
G01X4874Y97339D01*
G01X4979Y97288D01*
G01X5029Y97235D01*
G01X5083Y97080D01*
G01X5083Y96612D01*
G01X4717Y97682D02*
G01X4666Y97786D01*
G01X4511Y97943D01*
G01X5601Y97943D01*
G01X4564Y85944D02*
G01X5654Y85944D01*
G01X4564Y85944D02*
G01X4564Y86412D01*
G01X4615Y86567D01*
G01X4666Y86620D01*
G01X4770Y86671D01*
G01X4927Y86671D01*
G01X5031Y86620D01*
G01X5082Y86567D01*
G01X5136Y86412D01*
G01X5136Y85944D01*
G01X4823Y87067D02*
G01X4770Y87067D01*
G01X4666Y87118D01*
G01X4615Y87171D01*
G01X4564Y87275D01*
G01X4564Y87481D01*
G01X4615Y87585D01*
G01X4666Y87639D01*
G01X4770Y87689D01*
G01X4874Y87689D01*
G01X4978Y87639D01*
G01X5136Y87534D01*
G01X5654Y87014D01*
G01X5654Y87743D01*
G01X4744Y74133D02*
G01X5834Y74133D01*
G01X4744Y74133D02*
G01X4744Y74601D01*
G01X4795Y74756D01*
G01X4846Y74809D01*
G01X4950Y74860D01*
G01X5107Y74860D01*
G01X5211Y74809D01*
G01X5262Y74756D01*
G01X5316Y74601D01*
G01X5316Y74133D01*
G01X4744Y75307D02*
G01X4744Y75878D01*
G01X5158Y75568D01*
G01X5158Y75723D01*
G01X5211Y75828D01*
G01X5262Y75878D01*
G01X5417Y75932D01*
G01X5521Y75932D01*
G01X5679Y75878D01*
G01X5783Y75774D01*
G01X5834Y75619D01*
G01X5834Y75464D01*
G01X5783Y75307D01*
G01X5730Y75256D01*
G01X5625Y75203D01*
G01X4585Y54623D02*
G01X5674Y54623D01*
G01X4585Y54623D02*
G01X4585Y55090D01*
G01X4635Y55245D01*
G01X4686Y55298D01*
G01X4790Y55349D01*
G01X4948Y55349D01*
G01X5052Y55298D01*
G01X5103Y55245D01*
G01X5156Y55090D01*
G01X5156Y54623D01*
G01X4585Y56213D02*
G01X5311Y55692D01*
G01X5311Y56472D01*
G01X4585Y56213D02*
G01X5674Y56213D01*
G01X12669Y54073D02*
G01X12669Y53296D01*
G01X12720Y53139D01*
G01X12824Y53034D01*
G01X12982Y52984D01*
G01X13086Y52984D01*
G01X13241Y53034D01*
G01X13345Y53139D01*
G01X13396Y53296D01*
G01X13396Y54073D01*
G01X13739Y53868D02*
G01X13843Y53918D01*
G01X14000Y54073D01*
G01X14000Y52984D01*
G01X33161Y54089D02*
G01X33161Y53312D01*
G01X33212Y53155D01*
G01X33316Y53050D01*
G01X33474Y53000D01*
G01X33578Y53000D01*
G01X33733Y53050D01*
G01X33837Y53155D01*
G01X33888Y53312D01*
G01X33888Y54089D01*
G01X34284Y53830D02*
G01X34284Y53884D01*
G01X34335Y53988D01*
G01X34388Y54039D01*
G01X34492Y54089D01*
G01X34698Y54089D01*
G01X34802Y54039D01*
G01X34855Y53988D01*
G01X34906Y53884D01*
G01X34906Y53779D01*
G01X34855Y53675D01*
G01X34751Y53518D01*
G01X34231Y53000D01*
G01X34960Y53000D01*
G01X53685Y54089D02*
G01X53685Y53312D01*
G01X53736Y53155D01*
G01X53840Y53050D01*
G01X53998Y53000D01*
G01X54102Y53000D01*
G01X54257Y53050D01*
G01X54361Y53155D01*
G01X54412Y53312D01*
G01X54412Y54089D01*
G01X54859Y54089D02*
G01X55430Y54089D01*
G01X55120Y53675D01*
G01X55275Y53675D01*
G01X55379Y53622D01*
G01X55430Y53571D01*
G01X55484Y53416D01*
G01X55484Y53312D01*
G01X55430Y53155D01*
G01X55326Y53050D01*
G01X55171Y53000D01*
G01X55016Y53000D01*
G01X54859Y53050D01*
G01X54808Y53104D01*
G01X54755Y53208D01*
G01X8526Y36252D02*
G01X8526Y35475D01*
G01X8576Y35317D01*
G01X8681Y35213D01*
G01X8838Y35162D01*
G01X8942Y35162D01*
G01X9097Y35213D01*
G01X9201Y35317D01*
G01X9252Y35475D01*
G01X9252Y36252D01*
G01X10116Y36252D02*
G01X9595Y35526D01*
G01X10375Y35526D01*
G01X10116Y36252D02*
G01X10116Y35162D01*
G01X25007Y36286D02*
G01X25007Y35509D01*
G01X25058Y35351D01*
G01X25162Y35247D01*
G01X25319Y35196D01*
G01X25424Y35196D01*
G01X25578Y35247D01*
G01X25683Y35351D01*
G01X25733Y35509D01*
G01X25733Y36286D01*
G01X26701Y36286D02*
G01X26180Y36286D01*
G01X26130Y35819D01*
G01X26180Y35872D01*
G01X26338Y35923D01*
G01X26493Y35923D01*
G01X26648Y35872D01*
G01X26752Y35768D01*
G01X26805Y35613D01*
G01X26805Y35509D01*
G01X26752Y35351D01*
G01X26648Y35247D01*
G01X26493Y35196D01*
G01X26338Y35196D01*
G01X26180Y35247D01*
G01X26130Y35300D01*
G01X26076Y35405D01*
G01X41523Y36337D02*
G01X41523Y35560D01*
G01X41574Y35402D01*
G01X41678Y35298D01*
G01X41836Y35247D01*
G01X41940Y35247D01*
G01X42095Y35298D01*
G01X42199Y35402D01*
G01X42250Y35560D01*
G01X42250Y36337D01*
G01X43218Y36182D02*
G01X43164Y36286D01*
G01X43009Y36337D01*
G01X42905Y36337D01*
G01X42750Y36286D01*
G01X42646Y36131D01*
G01X42593Y35869D01*
G01X42593Y35610D01*
G01X42646Y35402D01*
G01X42750Y35298D01*
G01X42905Y35247D01*
G01X42959Y35247D01*
G01X43113Y35298D01*
G01X43218Y35402D01*
G01X43268Y35560D01*
G01X43268Y35610D01*
G01X43218Y35765D01*
G01X43113Y35869D01*
G01X42959Y35923D01*
G01X42905Y35923D01*
G01X42750Y35869D01*
G01X42646Y35765D01*
G01X42593Y35610D01*
G01X58301Y36353D02*
G01X58301Y35576D01*
G01X58352Y35418D01*
G01X58456Y35314D01*
G01X58614Y35263D01*
G01X58718Y35263D01*
G01X58873Y35314D01*
G01X58977Y35418D01*
G01X59028Y35576D01*
G01X59028Y36353D01*
G01X60100Y36353D02*
G01X59579Y35263D01*
G01X59371Y36353D02*
G01X60100Y36353D01*
G01X8695Y18422D02*
G01X8695Y17645D01*
G01X8745Y17488D01*
G01X8850Y17384D01*
G01X9007Y17333D01*
G01X9111Y17333D01*
G01X9266Y17384D01*
G01X9370Y17488D01*
G01X9421Y17645D01*
G01X9421Y18422D01*
G01X10026Y18422D02*
G01X9868Y18372D01*
G01X9817Y18267D01*
G01X9817Y18163D01*
G01X9868Y18059D01*
G01X9972Y18008D01*
G01X10181Y17955D01*
G01X10336Y17904D01*
G01X10440Y17800D01*
G01X10493Y17696D01*
G01X10493Y17541D01*
G01X10440Y17437D01*
G01X10389Y17384D01*
G01X10231Y17333D01*
G01X10026Y17333D01*
G01X9868Y17384D01*
G01X9817Y17437D01*
G01X9764Y17541D01*
G01X9764Y17696D01*
G01X9817Y17800D01*
G01X9922Y17904D01*
G01X10076Y17955D01*
G01X10285Y18008D01*
G01X10389Y18059D01*
G01X10440Y18163D01*
G01X10440Y18267D01*
G01X10389Y18372D01*
G01X10231Y18422D01*
G01X10026Y18422D01*
G01X24999Y18422D02*
G01X24999Y17645D01*
G01X25050Y17488D01*
G01X25154Y17384D01*
G01X25312Y17333D01*
G01X25416Y17333D01*
G01X25571Y17384D01*
G01X25675Y17488D01*
G01X25726Y17645D01*
G01X25726Y18422D01*
G01X26744Y18059D02*
G01X26694Y17904D01*
G01X26589Y17800D01*
G01X26435Y17749D01*
G01X26381Y17749D01*
G01X26226Y17800D01*
G01X26122Y17904D01*
G01X26069Y18059D01*
G01X26069Y18112D01*
G01X26122Y18267D01*
G01X26226Y18372D01*
G01X26381Y18422D01*
G01X26435Y18422D01*
G01X26589Y18372D01*
G01X26694Y18267D01*
G01X26744Y18059D01*
G01X26744Y17800D01*
G01X26694Y17541D01*
G01X26589Y17384D01*
G01X26435Y17333D01*
G01X26330Y17333D01*
G01X26173Y17384D01*
G01X26122Y17488D01*
G01X41514Y18422D02*
G01X41514Y17645D01*
G01X41565Y17488D01*
G01X41669Y17384D01*
G01X41826Y17333D01*
G01X41931Y17333D01*
G01X42086Y17384D01*
G01X42190Y17488D01*
G01X42240Y17645D01*
G01X42240Y18422D01*
G01X42583Y18217D02*
G01X42688Y18267D01*
G01X42845Y18422D01*
G01X42845Y17333D01*
G01X43498Y18422D02*
G01X43343Y18372D01*
G01X43239Y18217D01*
G01X43188Y17955D01*
G01X43188Y17800D01*
G01X43239Y17541D01*
G01X43343Y17384D01*
G01X43498Y17333D01*
G01X43602Y17333D01*
G01X43759Y17384D01*
G01X43864Y17541D01*
G01X43914Y17800D01*
G01X43914Y17955D01*
G01X43864Y18217D01*
G01X43759Y18372D01*
G01X43602Y18422D01*
G01X43498Y18422D01*
G01X58278Y18411D02*
G01X58278Y17634D01*
G01X58329Y17477D01*
G01X58433Y17373D01*
G01X58590Y17322D01*
G01X58695Y17322D01*
G01X58850Y17373D01*
G01X58954Y17477D01*
G01X59004Y17634D01*
G01X59004Y18411D01*
G01X59347Y18206D02*
G01X59452Y18257D01*
G01X59609Y18411D01*
G01X59609Y17322D01*
G01X59952Y18206D02*
G01X60056Y18257D01*
G01X60211Y18411D01*
G01X60211Y17322D01*
G01X4516Y44610D02*
G01X5606Y44610D01*
G01X4516Y45336D02*
G01X5606Y45336D01*
G01X5034Y44610D02*
G01X5034Y45336D01*
G01X4722Y45679D02*
G01X4671Y45783D01*
G01X4516Y45941D01*
G01X5606Y45941D01*
G01X64747Y28476D02*
G01X65837Y28476D01*
G01X64747Y29202D02*
G01X65837Y29202D01*
G01X65265Y28476D02*
G01X65265Y29202D01*
G01X64747Y29650D02*
G01X64747Y30221D01*
G01X65161Y29911D01*
G01X65161Y30066D01*
G01X65215Y30170D01*
G01X65265Y30221D01*
G01X65420Y30274D01*
G01X65524Y30274D01*
G01X65682Y30221D01*
G01X65786Y30117D01*
G01X65837Y29962D01*
G01X65837Y29807D01*
G01X65786Y29650D01*
G01X65733Y29599D01*
G01X65629Y29545D01*
G01X4119Y20987D02*
G01X5208Y20987D01*
G01X4119Y21714D02*
G01X5208Y21714D01*
G01X4637Y20987D02*
G01X4637Y21714D01*
G01X4119Y22577D02*
G01X4845Y22057D01*
G01X4845Y22836D01*
G01X4119Y22577D02*
G01X5208Y22577D01*
G54D26*
G75*
G01X13992Y94389D02*
G3X13987Y94264I-1397J-2D01*
G01*
G75*
G01X13611Y94389D02*
G3X13608Y94298I-1016J-2D01*
G01*
G75*
G01X34500Y94389D02*
G3X34495Y94264I-1397J-2D01*
G01*
G75*
G01X34119Y94389D02*
G3X34116Y94298I-1016J-2D01*
G01*
G75*
G01X54907Y94490D02*
G3X54901Y94366I-1397J-2D01*
G01*
G75*
G01X54526Y94490D02*
G3X54522Y94400I-1016J-2D01*
G01*
G54D10*
G75*
G01X15819Y46161D02*
G03X15819Y46161I-3150J0D01*
G01*
G75*
G01X15362Y46161D02*
G03X15362Y46161I-2692J0D01*
G01*
G75*
G01X36312Y46179D02*
G03X36312Y46179I-3150J0D01*
G01*
G75*
G01X35855Y46179D02*
G03X35855Y46179I-2692J0D01*
G01*
G75*
G01X56835Y46179D02*
G03X56835Y46179I-3150J0D01*
G01*
G75*
G01X56378Y46179D02*
G03X56378Y46179I-2692J0D01*
G01*
G75*
G01X11675Y28340D02*
G03X11675Y28340I-3150J0D01*
G01*
G75*
G01X11218Y28340D02*
G03X11218Y28340I-2692J0D01*
G01*
G75*
G01X28158Y28373D02*
G03X28158Y28373I-3150J0D01*
G01*
G75*
G01X27700Y28373D02*
G03X27700Y28373I-2692J0D01*
G01*
G75*
G01X44674Y28424D02*
G03X44674Y28424I-3150J0D01*
G01*
G75*
G01X44216Y28424D02*
G03X44216Y28424I-2692J0D01*
G01*
G75*
G01X61453Y28442D02*
G03X61453Y28442I-3150J0D01*
G01*
G75*
G01X60996Y28442D02*
G03X60996Y28442I-2692J0D01*
G01*
G75*
G01X11844Y10510D02*
G03X11844Y10510I-3150J0D01*
G01*
G75*
G01X11387Y10510D02*
G03X11387Y10510I-2692J0D01*
G01*
G75*
G01X28151Y10510D02*
G03X28151Y10510I-3150J0D01*
G01*
G75*
G01X27694Y10510D02*
G03X27694Y10510I-2692J0D01*
G01*
G75*
G01X44663Y10510D02*
G03X44663Y10510I-3150J0D01*
G01*
G75*
G01X44206Y10510D02*
G03X44206Y10510I-2692J0D01*
G01*
G75*
G01X61427Y10499D02*
G03X61427Y10499I-3150J0D01*
G01*
G75*
G01X60970Y10499D02*
G03X60970Y10499I-2692J0D01*
G01*
M00*
M02*
