;PTH Drill file created by EasyEDA 
M48
METRIC,LZ,000.000
;Holesize 1 = 0.306 METRIC
T01C0.306
;Holesize 2 = 0.889 METRIC
T02C0.889
;Holesize 3 = 1.000 METRIC
T03C1.000
;Holesize 4 = 1.100 METRIC
T04C1.100
;Holesize 5 = 1.101 METRIC
T05C1.101
;Holesize 6 = 1.103 METRIC
T06C1.103
;Holesize 7 = 2.101 METRIC
T07C2.101
;Holesize 8 = 2.501 METRIC
T08C2.501
%
G05
G90
T01
X024696Y018596
T02
X002181Y063022
X002181Y065562
X002213Y099533
X002213Y096993
X002213Y094453
X002265Y088484
X002265Y085944
X002265Y083404
X002446Y077562
X002446Y075022
X002446Y072482
X002117Y053522
X002117Y056062
X002117Y058602
T03
X022898Y072999G85X022898Y072999
X022898Y070459G85X022898Y070459
X022898Y067919G85X022898Y067919
X043398Y072999G85X043398Y072999
X043398Y070459G85X043398Y070459
X043398Y067919G85X043398Y067919
X002048Y049139
X002048Y046599
X002048Y044059
X002048Y041519
T04
X010095Y087388G85X010095Y087388
X012595Y087388G85X012595Y087388
X015095Y087388G85X015095Y087388
X030603Y087388G85X030603Y087388
X033103Y087388G85X033103Y087388
X035603Y087388G85X035603Y087388
X051009Y087490G85X051009Y087490
X053510Y087490G85X053510Y087490
X056009Y087490G85X056009Y087490
T05
X065014Y015877
X065014Y018417
X065014Y020957
X065014Y023497
X065014Y026037
X001947Y026067
X001947Y023527
X001947Y020987
X001947Y018447
X001947Y015907
T06
X012669Y051164
X012669Y042655
X012669Y039658
X033162Y051182
X033162Y042673
X033162Y039676
X053685Y051182
X053685Y042673
X053685Y039676
X008525Y033343
X008525Y024834
X008525Y021837
X025008Y033377
X025008Y024868
X025008Y021870
X041523Y033427
X041523Y024918
X041523Y021921
X058303Y033445
X058303Y024936
X058303Y021939
X008694Y015513
X008694Y007004
X008694Y004007
X025001Y015513
X025001Y007004
X025001Y004007
X041513Y015513
X041513Y007004
X041513Y004007
X058277Y015503
X058277Y006994
X058277Y003996
T07
X017095Y094391G85X017095Y094386
X008095Y094391G85X008095Y094386
X037603Y094391G85X037603Y094386
X028603Y094391G85X028603Y094386
X058009Y094492G85X058009Y094487
X049009Y094492G85X049009Y094487
T08
X064075Y104961
X063914Y003090
M30
